# Blender 4.4.3
# www.blender.org
mtllib demi_sphere_broken.mtl
o Icosphere
v 0.276388 0.447220 0.850649
v -0.723607 0.447220 0.525725
v -0.723607 0.447220 -0.525725
v 0.276388 0.447220 -0.850649
v 0.894426 0.447216 0.000000
v 0.000000 1.000000 0.000000
v 0.951058 0.000000 0.309013
v 0.951058 0.000000 -0.309013
v 0.000000 0.000000 1.000000
v 0.587786 0.000000 0.809017
v -0.951058 0.000000 0.309013
v -0.587786 0.000000 0.809017
v -0.587786 0.000000 -0.809017
v -0.951058 0.000000 -0.309013
v 0.000000 0.000000 -1.000000
v 0.688189 0.525736 0.499997
v -0.262869 0.525738 0.809012
v -0.850648 0.525736 0.000000
v -0.262869 0.525738 -0.809012
v 0.688189 0.525736 -0.499997
v 0.162456 0.850654 0.499995
v 0.525730 0.850652 0.000000
v -0.425323 0.850654 0.309011
v -0.425323 0.850654 -0.309011
v 0.162456 0.850654 -0.499995
vn 0.4089 0.6617 0.6284
vn -0.4713 0.6617 0.5831
vn -0.7002 0.6617 -0.2680
vn 0.0385 0.6617 -0.7488
vn 0.7240 0.6617 -0.1947
vn 0.2680 0.9435 -0.1947
vn 0.4911 0.7947 -0.3568
vn 0.4089 0.6617 -0.6284
vn -0.1024 0.9435 -0.3151
vn -0.1876 0.7947 -0.5773
vn -0.4713 0.6617 -0.5831
vn -0.3313 0.9435 -0.0000
vn -0.6071 0.7947 -0.0000
vn -0.7002 0.6617 0.2680
vn -0.1024 0.9435 0.3151
vn -0.1876 0.7947 0.5773
vn 0.2680 0.9435 0.1947
vn 0.7240 0.6617 0.1947
vn 0.8897 0.3304 -0.3151
vn -0.0247 0.3304 -0.9435
vn -0.3035 0.1876 -0.9342
vn -0.5346 0.3304 -0.7779
vn -0.9050 0.3304 -0.2680
vn -0.9822 0.1876 -0.0000
vn -0.9050 0.3304 0.2680
vn -0.5346 0.3304 0.7779
vn -0.3035 0.1876 0.9342
vn -0.0247 0.3304 0.9435
vn 0.5746 0.3304 0.7488
vn 0.7947 0.1876 0.5773
vn 0.8897 0.3304 0.3151
vn -0.8026 0.1256 -0.5831
vn -0.8026 0.1256 0.5831
vn 0.3066 0.1256 0.9435
vn 0.9921 0.1256 -0.0000
vt 0.181819 0.314921
vt 0.272728 0.314921
vt 0.227273 0.393651
vt 0.000000 0.314921
vt 0.090910 0.314921
vt 0.045455 0.393651
vt 0.727273 0.314921
vt 0.818182 0.314921
vt 0.772727 0.393651
vt 0.545455 0.314921
vt 0.636364 0.314921
vt 0.590909 0.393651
vt 0.363637 0.314921
vt 0.454546 0.314921
vt 0.409092 0.393651
vt 0.500000 0.393651
vt 0.454546 0.472382
vt 0.681818 0.393651
vt 0.636364 0.472382
vt 0.863636 0.393651
vt 0.818182 0.472382
vt 0.909091 0.314921
vt 0.136365 0.393651
vt 0.090910 0.472382
vt 0.318182 0.393651
vt 0.272728 0.472382
vt 0.409092 0.236191
vt 0.590909 0.236191
vt 0.681818 0.236191
vt 0.772727 0.236191
vt 0.863636 0.236191
vt 0.045455 0.236191
vt 0.136365 0.236191
vt 0.227273 0.236191
vt 0.318182 0.236191
vt 0.954545 0.236191
s 0
f 1/1/1 16/2/1 21/3/1
f 2/4/2 17/5/2 23/6/2
f 3/7/3 18/8/3 24/9/3
f 4/10/4 19/11/4 25/12/4
f 5/13/5 20/14/5 22/15/5
f 22/15/6 25/16/6 6/17/6
f 22/15/7 20/14/7 25/16/7
f 20/14/8 4/10/8 25/16/8
f 25/12/9 24/18/9 6/19/9
f 25/12/10 19/11/10 24/18/10
f 19/11/11 3/7/11 24/18/11
f 24/9/12 23/20/12 6/21/12
f 24/9/13 18/8/13 23/20/13
f 18/8/14 2/22/14 23/20/14
f 23/6/15 21/23/15 6/24/15
f 23/6/16 17/5/16 21/23/16
f 21/3/17 22/25/17 6/26/17
f 16/2/18 5/13/18 22/25/18
f 8/27/19 20/14/19 5/13/19
f 15/28/20 19/11/20 4/10/20
f 15/28/21 13/29/21 19/11/21
f 13/29/22 3/7/22 19/11/22
f 14/30/23 18/8/23 3/7/23
f 14/30/24 11/31/24 18/8/24
f 11/31/25 2/22/25 18/8/25
f 12/32/26 17/5/26 2/4/26
f 12/32/27 9/33/27 17/5/27
f 9/33/28 1/1/28 17/5/28
f 10/34/29 16/2/29 1/1/29
f 10/34/30 7/35/30 16/2/30
f 7/35/31 5/13/31 16/2/31
f 13/29/32 14/30/32 3/7/32
f 11/31/33 12/36/33 2/22/33
f 9/33/34 10/34/34 1/1/34
f 7/35/35 8/27/35 5/13/35
